<svg width="30" height="26" viewBox="0 0 30 26" fill="none" xmlns="http://www.w3.org/2000/svg">
<path d="M14.0193 1.39404C13.8589 1.11733 13.5115 0.982458 13.2456 0.954834C12.9273 0.960028 12.6374 1.13811 12.4864 1.4209L9.375 7.24549L11.0068 9.11612L12.5155 6.68297C12.8364 6.16591 13.6838 6.16591 14.0047 6.68297L15.5135 9.11607L17.2852 7.03748L14.0193 1.39404Z" fill="#415167"/>
<path d="M18.75 9.59615L18.2335 8.70215L16.152 11.2304C15.9802 11.4679 15.7313 11.623 15.4102 11.5927C15.1192 11.5823 14.8522 11.4262 14.6977 11.1767L13.2451 8.83054L11.7925 11.1767C11.638 11.4263 11.371 11.5823 11.08 11.5927C11.0689 11.5936 11.0577 11.5936 11.0474 11.5936C10.7675 11.5936 10.504 11.4592 10.3382 11.2304L8.44351 8.96136L0.104626 24.4857C-0.0413052 24.7604 -0.0344482 25.0933 0.124376 25.361C0.283201 25.6297 0.569965 25.7935 0.878999 25.7935H10.7786C10.5262 25.0756 10.5704 24.2742 10.9485 23.5982L18.75 9.59615Z" fill="#415167"/>
<path d="M21.9508 10.3034C21.6387 9.7454 20.7246 9.7454 20.4124 10.3034L18.5742 13.5865L21.1816 16.4494L23.7891 13.5865L21.9508 10.3034Z" fill="#415167"/>
<path d="M29.8866 24.4724L24.6612 15.2075L21.8278 18.383C21.6605 18.5847 21.4133 18.7016 21.1524 18.7016C20.8915 18.7016 20.6443 18.5847 20.4769 18.383L17.6436 15.2075L12.4767 24.4725C12.3231 24.7469 12.3257 25.0828 12.4836 25.3547C12.6415 25.6265 12.9298 25.7935 13.2422 25.7935H29.121C29.4334 25.7935 29.7218 25.6265 29.8797 25.3546C30.0376 25.0827 30.0402 24.7469 29.8866 24.4724Z" fill="#415167"/>
</svg>
