<?xml version="1.0" standalone="no"?>
<!DOCTYPE svg PUBLIC "-//W3C//DTD SVG 20010904//EN"
 "http://www.w3.org/TR/2001/REC-SVG-20010904/DTD/svg10.dtd">
<svg version="1.0" xmlns="http://www.w3.org/2000/svg"
 width="81.000000pt" height="81.000000pt" viewBox="0 0 81.000000 81.000000"
 preserveAspectRatio="xMidYMid meet">
<metadata>
Created by potrace 1.14, written by Peter Selinger 2001-2017
</metadata>
<g transform="translate(0.000000,81.000000) scale(0.100000,-0.100000)"
fill="#000000" stroke="none">
<path d="M302 785 c-73 -20 -108 -40 -164 -93 -50 -46 -79 -87 -97 -135 -9
-23 -8 -27 7 -27 10 0 25 17 37 43 25 55 98 127 158 156 26 12 76 28 111 34
122 21 265 -38 341 -141 19 -26 38 -57 41 -69 4 -14 14 -23 25 -23 16 0 17 4
8 27 -32 85 -129 180 -217 213 -74 28 -181 34 -250 15z"/>
<path d="M204 496 c-45 -20 -64 -52 -64 -108 0 -38 5 -54 28 -77 33 -36 72
-50 72 -27 0 9 -6 16 -13 16 -16 0 -57 42 -57 58 0 6 34 35 75 63 41 29 75 56
75 61 0 10 -45 28 -68 28 -9 -1 -31 -7 -48 -14z m44 -39 c-76 -62 -119 -67
-59 -6 19 19 39 29 58 29 l28 -1 -27 -22z"/>
<path d="M375 488 c6 -22 46 -135 67 -191 6 -15 15 -24 19 -20 5 5 27 59 49
121 29 83 36 112 26 112 -8 0 -25 -32 -42 -77 -15 -43 -30 -81 -33 -85 -4 -4
-20 31 -36 77 -17 51 -35 85 -43 85 -9 0 -11 -7 -7 -22z"/>
<path d="M642 495 c-64 -28 -77 -123 -25 -185 45 -54 122 -48 167 13 40 54 9
154 -56 176 -39 14 -46 13 -86 -4z m101 -35 c32 -26 44 -78 25 -116 -16 -34
-33 -41 -35 -13 -1 11 -16 42 -32 68 -17 26 -31 55 -31 64 0 24 41 22 73 -3z
m-54 -83 c32 -47 33 -77 1 -77 -32 0 -50 12 -65 41 -20 37 -19 79 2 109 l17
24 7 -26 c4 -14 21 -46 38 -71z"/>
<path d="M4 487 c-10 -28 1 -210 13 -215 10 -3 13 18 13 81 0 69 3 87 18 100
10 10 26 17 35 17 9 0 19 5 22 10 10 16 -24 24 -51 12 -15 -7 -24 -8 -24 -2 0
15 -20 12 -26 -3z"/>
<path d="M62 209 c35 -63 128 -144 195 -170 83 -32 215 -32 296 0 67 26 160
108 195 170 21 38 22 41 5 41 -10 0 -31 -21 -51 -50 -63 -97 -173 -154 -297
-154 -124 0 -234 57 -297 154 -20 29 -41 50 -51 50 -17 0 -16 -3 5 -41z"/>
</g>
</svg>
